# xmcd
#
# Track frame offsets:
#	150
#	14590
#	30929
#	41024
#	59255
#	70172
#	83083
#	103544
#	118751
#	141478
#	153858
#	168576
#	187322
#	206598
#	218547
#	239546
#	257648
#	279844
#	295877
#	313247
#	333146
#	350331
#
# Disc length: 4791 seconds
#
# Revision: 1
# Processed by: cddbd v1.5.1PL0 Copyright (c) Steve Scherf et al.
# Submitted via: audiograbber 1.83.01
#
DISCID=4612b516
DTITLE=Blonker - The De Luxe Collection
DYEAR=1900
DGENRE=
TTITLE0=Sidewalk Cafe
TTITLE1=Castles In The Air
TTITLE2=Sleep Walk
TTITLE3=Morning Breeze
TTITLE4=Here, Here and Everywhere
TTITLE5=White Disaster
TTITLE6=Anak
TTITLE7=La Valetta
TTITLE8=Fantasia
TTITLE9=Maria Elena
TTITLE10=Inside
TTITLE11=Take Off
TTITLE12=Amazonas
TTITLE13=When A Man Loves A Woman
TTITLE14=Oriental Circuit
TTITLE15=Water Garden
TTITLE16=Homeland
TTITLE17=Summer Lighting
TTITLE18=Golden Brass and Golden Strings
TTITLE19=Indigo
TTITLE20=The Rose
TTITLE21=Crying In The Rain
EXTD=
EXTT0=
EXTT1=
EXTT2=
EXTT3=
EXTT4=
EXTT5=
EXTT6=
EXTT7=
EXTT8=
EXTT9=
EXTT10=
EXTT11=
EXTT12=
EXTT13=
EXTT14=
EXTT15=
EXTT16=
EXTT17=
EXTT18=
EXTT19=
EXTT20=
EXTT21=
PLAYORDER=
